ffmpeg version N-82167-g5e96558 Copyright (c) 2000-2016 the FFmpeg developers
  built with gcc 5.4.0 (Ubuntu 5.4.0-6ubuntu1~16.04.2) 20160609
  configuration: --prefix=/root/ffmpeg_build --pkg-config-flags=--static --extra-cflags=-I/root/ffmpeg_build/include --extra-ldflags=-L/root/ffmpeg_build/lib --bindir=/root/bin --enable-gpl --enable-libass --enable-libfdk-aac --enable-libfreetype --enable-libmp3lame --enable-libopus --enable-libtheora --enable-libvorbis --enable-libx264 --enable-libx265 --enable-nonfree
  libavutil      55. 35.100 / 55. 35.100
  libavcodec     57. 65.100 / 57. 65.100
  libavformat    57. 57.100 / 57. 57.100
  libavdevice    57.  2.100 / 57.  2.100
  libavfilter     6. 66.100 /  6. 66.100
  libswscale      4.  3.100 /  4.  3.100
  libswresample   2.  4.100 /  2.  4.100
  libpostproc    54.  2.100 / 54.  2.100
Input #0, matroska,webm, from '/media/yubikiri/bot/queue/3AnimePahe_Detective_Conan_-_046_720p_Fansub.mkv':
  Metadata:
    title           : 3|Text||0|0
    ALBUM           : Anime
    LANGUAGE        : Keine Angabe
    ENCODER         : Lavf57.57.100
  Duration: 00:24:27.93, start: 0.000000, bitrate: 954 kb/s
    Stream #0:0: Video: mpeg4 (Advanced Simple Profile), yuv420p, 640x480 [SAR 1:1 DAR 4:3], 23.98 fps, 23.98 tbr, 1k tbn, 23.98 tbc (default)
    Metadata:
      DURATION        : 00:24:27.925000000
    Stream #0:1: Audio: mp3, 48000 Hz, stereo, s16p, 128 kb/s (default)
    Metadata:
      DURATION        : 00:24:27.888000000
[libx264 @ 0x306f060] using SAR=1/1
[libx264 @ 0x306f060] using cpu capabilities: MMX2 SSE2Fast SSSE3 SSE4.2 AVX FMA3 AVX2 LZCNT BMI2
[libx264 @ 0x306f060] profile High, level 3.1
[libx264 @ 0x306f060] 264 - core 148 r2643 5c65704 - H.264/MPEG-4 AVC codec - Copyleft 2003-2015 - http://www.videolan.org/x264.html - options: cabac=1 ref=8 deblock=1:1:1 analyse=0x3:0x133 me=umh subme=7 psy=1 psy_rd=0.00:0.00 mixed_ref=1 me_range=8 chroma_me=1 trellis=0 8x8dct=1 cqm=0 deadzone=21,11 fast_pskip=1 chroma_qp_offset=0 threads=8 lookahead_threads=2 sliced_threads=0 nr=0 decimate=1 interlaced=0 bluray_compat=0 constrained_intra=0 bframes=3 b_pyramid=2 b_adapt=2 b_bias=0 direct=1 weightb=1 open_gop=0 weightp=2 keyint=240 keyint_min=24 scenecut=40 intra_refresh=0 rc_lookahead=60 rc=crf mbtree=1 crf=27.0 qcomp=0.60 qpmin=0 qpmax=69 qpstep=4 ip_ratio=1.40 aq=1:1.00
[libfdk_aac @ 0x30029e0] Note, the VBR setting is unsupported and only works with some parameter combinations
Output #0, mp4, to '/media/yubikiri/bot/queue/3AnimePahe_Detective_Conan_-_046_720p_Fansub.mkv_encoded.mp4':
  Metadata:
    encoder         : Lavf57.57.100
    Stream #0:0: Video: h264 (libx264) ([33][0][0][0] / 0x0021), yuv420p, 640x480 [SAR 1:1 DAR 4:3], q=-1--1, 23.98 fps, 24k tbn, 23.98 tbc (default)
    Metadata:
      encoder         : Lavc57.65.100 libx264
    Side data:
      cpb: bitrate max/min/avg: 0/0/0 buffer size: 0 vbv_delay: -1
    Stream #0:1: Audio: aac (libfdk_aac) (HE-AACv2) ([64][0][0][0] / 0x0040), 48000 Hz, stereo, s16, 48 kb/s (default)
    Metadata:
      encoder         : Lavc57.65.100 libfdk_aac
Stream mapping:
  Stream #0:0 -> #0:0 (mpeg4 (native) -> h264 (libx264))
  Stream #0:1 -> #0:1 (mp3 (native) -> aac (libfdk_aac))
Press [q] to stop, [?] for help
frame=  118 fps=0.0 q=32.0 size=      72kB time=00:00:05.09 bitrate= 115.4kbits/s dup=1 drop=0 speed=10.1x    frame=  173 fps=172 q=32.0 size=     214kB time=00:00:07.36 bitrate= 238.7kbits/s dup=1 drop=0 speed=7.32x    frame=  234 fps=155 q=32.0 size=     342kB time=00:00:09.92 bitrate= 282.3kbits/s dup=1 drop=0 speed=6.59x    frame=  336 fps=167 q=32.0 size=     470kB time=00:00:14.18 bitrate= 271.2kbits/s dup=1 drop=0 speed=7.07x    frame=  418 fps=167 q=32.0 size=     591kB time=00:00:17.60 bitrate= 274.9kbits/s dup=1 drop=0 speed=7.02x    frame=  500 fps=166 q=32.0 size=     722kB time=00:00:21.01 bitrate= 281.6kbits/s dup=1 drop=0 speed=6.98x    frame=  546 fps=156 q=32.0 size=     827kB time=00:00:22.93 bitrate= 295.5kbits/s dup=1 drop=0 speed=6.54x    frame=  615 fps=153 q=32.0 size=     950kB time=00:00:25.79 bitrate= 301.8kbits/s dup=1 drop=0 speed= 6.4x    frame=  700 fps=154 q=32.0 size=    1046kB time=00:00:29.33 bitrate= 292.0kbits/s dup=1 drop=0 speed=6.46x    frame=  754 fps=149 q=32.0 size=    1171kB time=00:00:31.59 bitrate= 303.5kbits/s dup=1 drop=0 speed=6.24x    frame=  800 fps=144 q=32.0 size=    1332kB time=00:00:33.51 bitrate= 325.5kbits/s dup=1 drop=0 speed=6.02x    frame=  868 fps=143 q=32.0 size=    1440kB time=00:00:36.37 bitrate= 324.3kbits/s dup=1 drop=0 speed=5.99x    frame=  923 fps=140 q=32.0 size=    1552kB time=00:00:38.67 bitrate= 328.7kbits/s dup=1 drop=0 speed=5.88x    frame=  970 fps=137 q=32.0 size=    1653kB time=00:00:40.59 bitrate= 333.6kbits/s dup=1 drop=0 speed=5.74x    frame= 1009 fps=133 q=32.0 size=    1725kB time=00:00:42.21 bitrate= 334.7kbits/s dup=1 drop=0 speed=5.57x    frame= 1042 fps=129 q=32.0 size=    1815kB time=00:00:43.62 bitrate= 340.7kbits/s dup=1 drop=0 speed= 5.4x    frame= 1109 fps=129 q=32.0 size=    1934kB time=00:00:46.40 bitrate= 341.4kbits/s dup=1 drop=0 speed= 5.4x    frame= 1177 fps=129 q=32.0 size=    2052kB time=00:00:49.25 bitrate= 341.2kbits/s dup=1 drop=0 speed=5.41x    frame= 1237 fps=129 q=32.0 size=    2157kB time=00:00:51.73 bitrate= 341.6kbits/s dup=1 drop=0 speed=5.38x    frame= 1284 fps=127 q=32.0 size=    2259kB time=00:00:53.69 bitrate= 344.7kbits/s dup=1 drop=0 speed= 5.3x    frame= 1315 fps=123 q=32.0 size=    2343kB time=00:00:55.01 bitrate= 348.9kbits/s dup=1 drop=0 speed=5.14x    frame= 1349 fps=120 q=32.0 size=    2418kB time=00:00:56.42 bitrate= 351.1kbits/s dup=1 drop=0 speed=5.03x    frame= 1376 fps=117 q=32.0 size=    2537kB time=00:00:57.53 bitrate= 361.3kbits/s dup=1 drop=0 speed= 4.9x    frame= 1413 fps=116 q=32.0 size=    2630kB time=00:00:59.07 bitrate= 364.8kbits/s dup=1 drop=0 speed=4.83x    frame= 1453 fps=114 q=32.0 size=    2698kB time=00:01:00.77 bitrate= 363.7kbits/s dup=1 drop=0 speed=4.77x    frame= 1488 fps=112 q=32.0 size=    2750kB time=00:01:02.23 bitrate= 362.1kbits/s dup=1 drop=0 speed= 4.7x    frame= 1517 fps=110 q=32.0 size=    2874kB time=00:01:03.42 bitrate= 371.2kbits/s dup=1 drop=0 speed=4.61x    frame= 1565 fps=110 q=32.0 size=    2956kB time=00:01:05.43 bitrate= 370.0kbits/s dup=1 drop=0 speed=4.59x    frame= 1611 fps=109 q=32.0 size=    3031kB time=00:01:07.35 bitrate= 368.7kbits/s dup=1 drop=0 speed=4.57x    frame= 1660 fps=108 q=32.0 size=    3173kB time=00:01:09.39 bitrate= 374.6kbits/s dup=1 drop=0 speed=4.54x    frame= 1698 fps=107 q=32.0 size=    3315kB time=00:01:10.97 bitrate= 382.6kbits/s dup=1 drop=0 speed=4.47x    frame= 1752 fps=107 q=32.0 size=    3397kB time=00:01:13.23 bitrate= 380.0kbits/s dup=1 drop=0 speed=4.47x    frame= 1787 fps=106 q=32.0 size=    3516kB time=00:01:14.68 bitrate= 385.6kbits/s dup=1 drop=0 speed=4.42x    frame= 1827 fps=105 q=32.0 size=    3620kB time=00:01:16.35 bitrate= 388.4kbits/s dup=1 drop=0 speed=4.39x    frame= 1871 fps=105 q=32.0 size=    3751kB time=00:01:18.18 bitrate= 393.0kbits/s dup=1 drop=0 speed=4.37x    frame= 1910 fps=104 q=32.0 size=    3845kB time=00:01:19.80 bitrate= 394.6kbits/s dup=1 drop=0 speed=4.34x    frame= 1955 fps=103 q=32.0 size=    3943kB time=00:01:21.68 bitrate= 395.4kbits/s dup=1 drop=0 speed=4.32x    frame= 2000 fps=103 q=32.0 size=    4041kB time=00:01:23.56 bitrate= 396.1kbits/s dup=1 drop=0 speed=4.31x    frame= 2045 fps=103 q=32.0 size=    4152kB time=00:01:25.48 bitrate= 397.9kbits/s dup=1 drop=0 speed= 4.3x    frame= 2091 fps=102 q=32.0 size=    4235kB time=00:01:27.36 bitrate= 397.1kbits/s dup=1 drop=0 speed=4.28x    frame= 2151 fps=103 q=32.0 size=    4327kB time=00:01:29.87 bitrate= 394.4kbits/s dup=1 drop=0 speed= 4.3x    frame= 2195 fps=103 q=32.0 size=    4414kB time=00:01:31.71 bitrate= 394.3kbits/s dup=1 drop=0 speed=4.28x    frame= 2284 fps=104 q=32.0 size=    4531kB time=00:01:35.42 bitrate= 389.0kbits/s dup=1 drop=0 speed=4.36x    frame= 2402 fps=107 q=32.0 size=    4597kB time=00:01:40.37 bitrate= 375.1kbits/s dup=1 drop=0 speed=4.48x    frame= 2443 fps=107 q=32.0 size=    4736kB time=00:01:42.03 bitrate= 380.2kbits/s dup=1 drop=0 speed=4.45x    frame= 2490 fps=106 q=32.0 size=    4871kB time=00:01:44.00 bitrate= 383.7kbits/s dup=1 drop=0 speed=4.44x    frame= 2580 fps=108 q=32.0 size=    4950kB time=00:01:47.75 bitrate= 376.3kbits/s dup=1 drop=0 speed= 4.5x    frame= 2673 fps=109 q=32.0 size=    5045kB time=00:01:51.63 bitrate= 370.2kbits/s dup=1 drop=0 speed=4.56x    frame= 2753 fps=110 q=32.0 size=    5126kB time=00:01:54.96 bitrate= 365.2kbits/s dup=1 drop=0 speed= 4.6x    frame= 2808 fps=110 q=32.0 size=    5222kB time=00:01:57.27 bitrate= 364.8kbits/s dup=1 drop=0 speed= 4.6x    frame= 2883 fps=111 q=32.0 size=    5318kB time=00:02:00.42 bitrate= 361.8kbits/s dup=1 drop=0 speed=4.63x    frame= 2958 fps=112 q=32.0 size=    5439kB time=00:02:03.54 bitrate= 360.7kbits/s dup=1 drop=0 speed=4.66x    frame= 3047 fps=113 q=32.0 size=    5558kB time=00:02:07.25 bitrate= 357.8kbits/s dup=1 drop=0 speed=4.71x    frame= 3135 fps=114 q=32.0 size=    5634kB time=00:02:10.92 bitrate= 352.5kbits/s dup=1 drop=0 speed=4.76x    frame= 3192 fps=114 q=32.0 size=    5708kB time=00:02:13.31 bitrate= 350.7kbits/s dup=1 drop=0 speed=4.76x    frame= 3258 fps=114 q=32.0 size=    5802kB time=00:02:16.04 bitrate= 349.3kbits/s dup=1 drop=0 speed=4.77x    frame= 3345 fps=115 q=32.0 size=    5923kB time=00:02:19.67 bitrate= 347.4kbits/s dup=1 drop=0 speed=4.82x    frame= 3433 fps=116 q=32.0 size=    5987kB time=00:02:23.33 bitrate= 342.2kbits/s dup=1 drop=0 speed=4.86x    frame= 3519 fps=117 q=32.0 size=    6097kB time=00:02:26.92 bitrate= 339.9kbits/s dup=1 drop=0 speed= 4.9x    frame= 3612 fps=118 q=32.0 size=    6160kB time=00:02:30.80 bitrate= 334.6kbits/s dup=1 drop=0 speed=4.94x    frame= 3692 fps=119 q=32.0 size=    6279kB time=00:02:34.13 bitrate= 333.7kbits/s dup=1 drop=0 speed=4.97x    frame= 3788 fps=120 q=32.0 size=    6383kB time=00:02:38.14 bitrate= 330.7kbits/s dup=1 drop=0 speed=5.01x    frame= 3864 fps=121 q=32.0 size=    6478kB time=00:02:41.34 bitrate= 328.9kbits/s dup=1 drop=0 speed=5.03x    frame= 3931 fps=121 q=32.0 size=    6578kB time=00:02:44.11 bitrate= 328.3kbits/s dup=1 drop=0 speed=5.04x    frame= 4010 fps=121 q=32.0 size=    6656kB time=00:02:47.40 bitrate= 325.7kbits/s dup=1 drop=0 speed=5.06x    frame= 4091 fps=122 q=32.0 size=    6749kB time=00:02:50.77 bitrate= 323.8kbits/s dup=1 drop=0 speed=5.08x    frame= 4183 fps=123 q=32.0 size=    6852kB time=00:02:54.61 bitrate= 321.4kbits/s dup=1 drop=0 speed=5.12x    frame= 4240 fps=123 q=32.0 size=    6887kB time=00:02:57.00 bitrate= 318.7kbits/s dup=1 drop=0 speed=5.12x    frame= 4316 fps=123 q=32.0 size=    6997kB time=00:03:00.16 bitrate= 318.1kbits/s dup=1 drop=0 speed=5.13x    frame= 4394 fps=123 q=32.0 size=    7058kB time=00:03:03.44 bitrate= 315.2kbits/s dup=1 drop=0 speed=5.15x    frame= 4470 fps=124 q=32.0 size=    7148kB time=00:03:06.60 bitrate= 313.8kbits/s dup=1 drop=0 speed=5.17x    frame= 4547 fps=124 q=32.0 size=    7240kB time=00:03:09.80 bitrate= 312.5kbits/s dup=1 drop=0 speed=5.18x    frame= 4614 fps=124 q=32.0 size=    7301kB time=00:03:12.61 bitrate= 310.5kbits/s dup=1 drop=0 speed=5.19x    frame= 4689 fps=125 q=32.0 size=    7397kB time=00:03:15.73 bitrate= 309.6kbits/s dup=1 drop=0 speed= 5.2x    frame= 4758 fps=125 q=32.0 size=    7468kB time=00:03:18.59 bitrate= 308.0kbits/s dup=1 drop=0 speed=5.21x    frame= 4834 fps=125 q=32.0 size=    7544kB time=00:03:21.75 bitrate= 306.3kbits/s dup=1 drop=0 speed=5.22x    frame= 4926 fps=126 q=32.0 size=    7613kB time=00:03:25.59 bitrate= 303.4kbits/s dup=1 drop=0 speed=5.25x    frame= 5003 fps=126 q=32.0 size=    7714kB time=00:03:28.83 bitrate= 302.6kbits/s dup=1 drop=0 speed=5.27x    frame= 5095 fps=127 q=32.0 size=    7801kB time=00:03:32.67 bitrate= 300.5kbits/s dup=1 drop=0 speed= 5.3x    frame= 5167 fps=127 q=32.0 size=    7867kB time=00:03:35.65 bitrate= 298.8kbits/s dup=1 drop=0 speed=5.31x    frame= 5247 fps=128 q=32.0 size=    7972kB time=00:03:38.98 bitrate= 298.2kbits/s dup=1 drop=0 speed=5.32x    frame= 5322 fps=128 q=32.0 size=    8075kB time=00:03:42.10 bitrate= 297.8kbits/s dup=1 drop=0 speed=5.33x    frame= 5404 fps=128 q=32.0 size=    8167kB time=00:03:45.55 bitrate= 296.6kbits/s dup=1 drop=0 speed=5.35x    frame= 5487 fps=129 q=32.0 size=    8274kB time=00:03:49.01 bitrate= 296.0kbits/s dup=1 drop=0 speed=5.37x    frame= 5570 fps=129 q=32.0 size=    8379kB time=00:03:52.47 bitrate= 295.3kbits/s dup=1 drop=0 speed=5.39x    frame= 5629 fps=129 q=32.0 size=    8522kB time=00:03:54.94 bitrate= 297.1kbits/s dup=1 drop=0 speed=5.38x    frame= 5719 fps=130 q=32.0 size=    8601kB time=00:03:58.69 bitrate= 295.2kbits/s dup=1 drop=0 speed=5.41x    frame= 5820 fps=130 q=32.0 size=    8684kB time=00:04:02.92 bitrate= 292.9kbits/s dup=1 drop=0 speed=5.44x    frame= 5926 fps=131 q=32.0 size=    8778kB time=00:04:07.31 bitrate= 290.7kbits/s dup=1 drop=0 speed=5.47x    frame= 6015 fps=132 q=32.0 size=    8864kB time=00:04:11.03 bitrate= 289.3kbits/s dup=1 drop=0 speed=5.49x    frame= 6106 fps=132 q=32.0 size=    8955kB time=00:04:14.82 bitrate= 287.9kbits/s dup=1 drop=0 speed=5.52x    frame= 6190 fps=133 q=32.0 size=    9018kB time=00:04:18.32 bitrate= 286.0kbits/s dup=1 drop=0 speed=5.53x    frame= 6270 fps=133 q=32.0 size=    9116kB time=00:04:21.69 bitrate= 285.4kbits/s dup=1 drop=0 speed=5.55x    frame= 6357 fps=133 q=32.0 size=    9197kB time=00:04:25.28 bitrate= 284.0kbits/s dup=1 drop=0 speed=5.56x    frame= 6409 fps=133 q=32.0 size=    9258kB time=00:04:27.45 bitrate= 283.6kbits/s dup=1 drop=0 speed=5.55x    frame= 6496 fps=133 q=32.0 size=    9321kB time=00:04:31.08 bitrate= 281.7kbits/s dup=1 drop=0 speed=5.57x    frame= 6582 fps=134 q=32.0 size=    9408kB time=00:04:34.66 bitrate= 280.6kbits/s dup=1 drop=0 speed=5.58x    frame= 6669 fps=134 q=32.0 size=    9491kB time=00:04:38.29 bitrate= 279.4kbits/s dup=1 drop=0 speed= 5.6x    frame= 6750 fps=134 q=32.0 size=    9571kB time=00:04:41.70 bitrate= 278.3kbits/s dup=1 drop=0 speed=5.61x    frame= 6823 fps=135 q=32.0 size=    9680kB time=00:04:44.73 bitrate= 278.5kbits/s dup=1 drop=0 speed=5.61x    frame= 6901 fps=135 q=32.0 size=    9760kB time=00:04:47.97 bitrate= 277.6kbits/s dup=1 drop=0 speed=5.62x    frame= 6979 fps=135 q=32.0 size=    9887kB time=00:04:51.22 bitrate= 278.1kbits/s dup=1 drop=0 speed=5.63x    frame= 7054 fps=135 q=32.0 size=    9969kB time=00:04:54.33 bitrate= 277.4kbits/s dup=1 drop=0 speed=5.63x    frame= 7129 fps=135 q=32.0 size=   10081kB time=00:04:57.49 bitrate= 277.6kbits/s dup=1 drop=0 speed=5.64x    frame= 7185 fps=135 q=32.0 size=   10148kB time=00:04:59.84 bitrate= 277.3kbits/s dup=1 drop=0 speed=5.63x    frame= 7285 fps=135 q=32.0 size=   10270kB time=00:05:04.02 bitrate= 276.7kbits/s dup=1 drop=0 speed=5.65x    frame= 7381 fps=136 q=32.0 size=   10336kB time=00:05:08.03 bitrate= 274.9kbits/s dup=1 drop=0 speed=5.67x    frame= 7462 fps=136 q=32.0 size=   10444kB time=00:05:11.36 bitrate= 274.8kbits/s dup=1 drop=0 speed=5.68x    frame= 7552 fps=136 q=32.0 size=   10532kB time=00:05:15.15 bitrate= 273.8kbits/s dup=1 drop=0 speed=5.69x    frame= 7613 fps=136 q=32.0 size=   10640kB time=00:05:17.67 bitrate= 274.4kbits/s dup=1 drop=0 speed=5.69x    frame= 7700 fps=137 q=32.0 size=   10743kB time=00:05:21.30 bitrate= 273.9kbits/s dup=1 drop=0 speed= 5.7x    frame= 7799 fps=137 q=32.0 size=   10818kB time=00:05:25.44 bitrate= 272.3kbits/s dup=1 drop=0 speed=5.72x    frame= 7888 fps=137 q=32.0 size=   10913kB time=00:05:29.15 bitrate= 271.6kbits/s dup=1 drop=0 speed=5.74x    frame= 7951 fps=137 q=32.0 size=   11013kB time=00:05:31.75 bitrate= 271.9kbits/s dup=1 drop=0 speed=5.73x    frame= 8028 fps=138 q=32.0 size=   11107kB time=00:05:34.99 bitrate= 271.6kbits/s dup=1 drop=0 speed=5.74x    frame= 8112 fps=138 q=32.0 size=   11179kB time=00:05:38.53 bitrate= 270.5kbits/s dup=1 drop=0 speed=5.75x    frame= 8193 fps=138 q=32.0 size=   11245kB time=00:05:41.86 bitrate= 269.5kbits/s dup=1 drop=0 speed=5.76x    frame= 8263 fps=138 q=32.0 size=   11373kB time=00:05:44.76 bitrate= 270.2kbits/s dup=1 drop=0 speed=5.76x    frame= 8368 fps=139 q=32.0 size=   11449kB time=00:05:49.16 bitrate= 268.6kbits/s dup=1 drop=0 speed=5.78x    frame= 8459 fps=139 q=32.0 size=   11563kB time=00:05:52.96 bitrate= 268.4kbits/s dup=1 drop=0 speed= 5.8x    frame= 8557 fps=139 q=32.0 size=   11657kB time=00:05:57.05 bitrate= 267.4kbits/s dup=1 drop=0 speed=5.82x    frame= 8619 fps=139 q=32.0 size=   11775kB time=00:05:59.65 bitrate= 268.2kbits/s dup=1 drop=0 speed=5.81x    frame= 8679 fps=139 q=32.0 size=   11878kB time=00:06:02.13 bitrate= 268.7kbits/s dup=1 drop=0 speed= 5.8x    frame= 8756 fps=139 q=32.0 size=   11953kB time=00:06:05.33 bitrate= 268.0kbits/s dup=1 drop=0 speed=5.81x    frame= 8822 fps=139 q=32.0 size=   12057kB time=00:06:08.10 bitrate= 268.3kbits/s dup=1 drop=0 speed=5.81x    frame= 8882 fps=139 q=32.0 size=   12127kB time=00:06:10.58 bitrate= 268.1kbits/s dup=1 drop=0 speed= 5.8x    frame= 8916 fps=138 q=32.0 size=   12205kB time=00:06:12.03 bitrate= 268.8kbits/s dup=1 drop=0 speed=5.77x    frame= 8944 fps=138 q=32.0 size=   12267kB time=00:06:13.18 bitrate= 269.3kbits/s dup=1 drop=0 speed=5.75x    frame= 8973 fps=137 q=32.0 size=   12324kB time=00:06:14.37 bitrate= 269.7kbits/s dup=1 drop=0 speed=5.72x    frame= 9017 fps=137 q=32.0 size=   12399kB time=00:06:16.25 bitrate= 270.0kbits/s dup=1 drop=0 speed=5.71x    frame= 9086 fps=137 q=32.0 size=   12473kB time=00:06:19.11 bitrate= 269.5kbits/s dup=1 drop=0 speed=5.71x    frame= 9168 fps=137 q=32.0 size=   12547kB time=00:06:22.52 bitrate= 268.7kbits/s dup=1 drop=0 speed=5.71x    frame= 9265 fps=137 q=32.0 size=   12616kB time=00:06:26.58 bitrate= 267.3kbits/s dup=1 drop=0 speed=5.73x    frame= 9327 fps=137 q=32.0 size=   12678kB time=00:06:29.18 bitrate= 266.9kbits/s dup=1 drop=0 speed=5.73x    frame= 9399 fps=137 q=32.0 size=   12732kB time=00:06:32.17 bitrate= 266.0kbits/s dup=1 drop=0 speed=5.73x    frame= 9427 fps=137 q=32.0 size=   12798kB time=00:06:33.32 bitrate= 266.5kbits/s dup=1 drop=0 speed= 5.7x    frame= 9452 fps=136 q=32.0 size=   12839kB time=00:06:34.39 bitrate= 266.7kbits/s dup=1 drop=0 speed=5.68x    frame= 9476 fps=135 q=32.0 size=   12868kB time=00:06:35.41 bitrate= 266.6kbits/s dup=1 drop=0 speed=5.65x    frame= 9519 fps=135 q=32.0 size=   12940kB time=00:06:37.16 bitrate= 266.9kbits/s dup=1 drop=0 speed=5.63x    frame= 9588 fps=135 q=32.0 size=   13028kB time=00:06:40.06 bitrate= 266.8kbits/s dup=1 drop=0 speed=5.63x    frame= 9655 fps=135 q=32.0 size=   13101kB time=00:06:42.83 bitrate= 266.4kbits/s dup=1 drop=0 speed=5.63x    frame= 9724 fps=135 q=32.0 size=   13192kB time=00:06:45.73 bitrate= 266.3kbits/s dup=1 drop=0 speed=5.63x    frame= 9789 fps=135 q=32.0 size=   13273kB time=00:06:48.42 bitrate= 266.2kbits/s dup=1 drop=0 speed=5.63x    frame= 9853 fps=135 q=32.0 size=   13400kB time=00:06:51.11 bitrate= 267.0kbits/s dup=1 drop=0 speed=5.63x    frame= 9925 fps=135 q=32.0 size=   13514kB time=00:06:54.10 bitrate= 267.3kbits/s dup=1 drop=0 speed=5.63x    frame= 9986 fps=135 q=32.0 size=   13586kB time=00:06:56.66 bitrate= 267.1kbits/s dup=1 drop=0 speed=5.62x    frame=10078 fps=135 q=32.0 size=   13658kB time=00:07:00.50 bitrate= 266.1kbits/s dup=1 drop=0 speed=5.64x    frame=10154 fps=135 q=32.0 size=   13784kB time=00:07:03.65 bitrate= 266.5kbits/s dup=1 drop=0 speed=5.64x    frame=10251 fps=136 q=32.0 size=   13879kB time=00:07:07.71 bitrate= 265.8kbits/s dup=1 drop=0 speed=5.66x    frame=10358 fps=136 q=32.0 size=   13954kB time=00:07:12.15 bitrate= 264.5kbits/s dup=1 drop=0 speed=5.68x    frame=10451 fps=136 q=32.0 size=   14048kB time=00:07:16.07 bitrate= 263.9kbits/s dup=1 drop=0 speed=5.69x    frame=10544 fps=137 q=32.0 size=   14157kB time=00:07:19.95 bitrate= 263.6kbits/s dup=1 drop=0 speed= 5.7x    frame=10643 fps=137 q=32.0 size=   14250kB time=00:07:24.05 bitrate= 262.9kbits/s dup=1 drop=0 speed=5.72x    frame=10741 fps=137 q=32.0 size=   14314kB time=00:07:28.15 bitrate= 261.7kbits/s dup=1 drop=0 speed=5.74x    frame=10818 fps=137 q=32.0 size=   14414kB time=00:07:31.35 bitrate= 261.6kbits/s dup=1 drop=0 speed=5.74x    frame=10865 fps=137 q=32.0 size=   14496kB time=00:07:33.31 bitrate= 262.0kbits/s dup=1 drop=0 speed=5.73x    frame=10957 fps=138 q=32.0 size=   14601kB time=00:07:37.19 bitrate= 261.6kbits/s dup=1 drop=0 speed=5.74x    frame=11025 fps=137 q=32.0 size=   14694kB time=00:07:39.96 bitrate= 261.7kbits/s dup=1 drop=0 speed=5.73x    frame=11067 fps=137 q=32.0 size=   14780kB time=00:07:41.71 bitrate= 262.2kbits/s dup=1 drop=0 speed=5.72x    frame=11144 fps=137 q=32.0 size=   14863kB time=00:07:44.96 bitrate= 261.9kbits/s dup=1 drop=0 speed=5.72x    frame=11241 fps=137 q=32.0 size=   14953kB time=00:07:49.01 bitrate= 261.2kbits/s dup=1 drop=0 speed=5.74x    frame=11308 fps=137 q=32.0 size=   15082kB time=00:07:51.78 bitrate= 261.9kbits/s dup=1 drop=0 speed=5.74x    frame=11396 fps=138 q=32.0 size=   15181kB time=00:07:55.45 bitrate= 261.6kbits/s dup=1 drop=0 speed=5.75x    frame=11500 fps=138 q=32.0 size=   15268kB time=00:07:59.80 bitrate= 260.7kbits/s dup=1 drop=0 speed=5.76x    frame=11593 fps=138 q=32.0 size=   15353kB time=00:08:03.69 bitrate= 260.0kbits/s dup=1 drop=0 speed=5.77x    frame=11660 fps=138 q=32.0 size=   15438kB time=00:08:06.46 bitrate= 260.0kbits/s dup=1 drop=0 speed=5.77x    frame=11747 fps=139 q=32.0 size=   15562kB time=00:08:10.09 bitrate= 260.1kbits/s dup=1 drop=0 speed=5.78x    frame=11838 fps=139 q=32.0 size=   15627kB time=00:08:13.88 bitrate= 259.2kbits/s dup=1 drop=0 speed=5.79x    frame=11907 fps=139 q=32.0 size=   15767kB time=00:08:16.79 bitrate= 260.0kbits/s dup=1 drop=0 speed=5.79x    frame=11974 fps=139 q=32.0 size=   15889kB time=00:08:19.56 bitrate= 260.6kbits/s dup=1 drop=0 speed=5.78x    frame=12033 fps=138 q=32.0 size=   16006kB time=00:08:22.03 bitrate= 261.2kbits/s dup=1 drop=0 speed=5.77x    frame=12087 fps=138 q=32.0 size=   16106kB time=00:08:24.29 bitrate= 261.6kbits/s dup=1 drop=0 speed=5.77x    frame=12155 fps=138 q=32.0 size=   16227kB time=00:08:27.11 bitrate= 262.1kbits/s dup=1 drop=0 speed=5.76x    frame=12242 fps=138 q=32.0 size=   16307kB time=00:08:30.78 bitrate= 261.5kbits/s dup=1 drop=0 speed=5.77x    frame=12327 fps=139 q=32.0 size=   16379kB time=00:08:34.28 bitrate= 260.9kbits/s dup=1 drop=0 speed=5.78x    frame=12413 fps=139 q=32.0 size=   16469kB time=00:08:37.91 bitrate= 260.5kbits/s dup=1 drop=0 speed=5.79x    frame=12502 fps=139 q=32.0 size=   16565kB time=00:08:41.57 bitrate= 260.2kbits/s dup=1 drop=0 speed=5.79x    frame=12599 fps=139 q=32.0 size=   16647kB time=00:08:45.63 bitrate= 259.4kbits/s dup=1 drop=0 speed=5.81x    frame=12695 fps=139 q=32.0 size=   16739kB time=00:08:49.64 bitrate= 258.9kbits/s dup=1 drop=0 speed=5.82x    frame=12790 fps=140 q=32.0 size=   16833kB time=00:08:53.61 bitrate= 258.4kbits/s dup=1 drop=0 speed=5.83x    frame=12873 fps=140 q=32.0 size=   16951kB time=00:08:57.06 bitrate= 258.6kbits/s dup=1 drop=0 speed=5.84x    frame=12983 fps=140 q=32.0 size=   17028kB time=00:09:01.67 bitrate= 257.5kbits/s dup=1 drop=0 speed=5.85x    frame=13084 fps=141 q=32.0 size=   17098kB time=00:09:05.85 bitrate= 256.6kbits/s dup=1 drop=0 speed=5.87x    frame=13197 fps=141 q=32.0 size=   17218kB time=00:09:10.59 bitrate= 256.2kbits/s dup=1 drop=0 speed=5.89x    frame=13310 fps=142 q=32.0 size=   17318kB time=00:09:15.28 bitrate= 255.5kbits/s dup=1 drop=0 speed= 5.9x    frame=13409 fps=142 q=32.0 size=   17387kB time=00:09:19.42 bitrate= 254.6kbits/s dup=1 drop=0 speed=5.92x    frame=13499 fps=142 q=32.0 size=   17467kB time=00:09:23.17 bitrate= 254.1kbits/s dup=1 drop=0 speed=5.92x    frame=13557 fps=142 q=32.0 size=   17542kB time=00:09:25.61 bitrate= 254.1kbits/s dup=1 drop=0 speed=5.92x    frame=13648 fps=142 q=32.0 size=   17629kB time=00:09:29.40 bitrate= 253.6kbits/s dup=1 drop=0 speed=5.93x    frame=13749 fps=142 q=32.0 size=   17710kB time=00:09:33.59 bitrate= 252.9kbits/s dup=1 drop=0 speed=5.94x    frame=13852 fps=143 q=32.0 size=   17791kB time=00:09:37.89 bitrate= 252.2kbits/s dup=1 drop=0 speed=5.95x    frame=13929 fps=143 q=32.0 size=   17853kB time=00:09:41.09 bitrate= 251.7kbits/s dup=1 drop=0 speed=5.96x    frame=13984 fps=143 q=32.0 size=   17928kB time=00:09:43.40 bitrate= 251.7kbits/s dup=1 drop=0 speed=5.95x    frame=14054 fps=143 q=32.0 size=   18015kB time=00:09:46.30 bitrate= 251.7kbits/s dup=1 drop=0 speed=5.95x    frame=14164 fps=143 q=32.0 size=   18126kB time=00:09:50.91 bitrate= 251.3kbits/s dup=1 drop=0 speed=5.96x    frame=14270 fps=143 q=32.0 size=   18226kB time=00:09:55.35 bitrate= 250.8kbits/s dup=1 drop=0 speed=5.98x    frame=14364 fps=143 q=32.0 size=   18325kB time=00:09:59.27 bitrate= 250.5kbits/s dup=1 drop=0 speed=5.99x    frame=14470 fps=144 q=32.0 size=   18428kB time=00:10:03.67 bitrate= 250.1kbits/s dup=1 drop=0 speed=   6x    frame=14551 fps=144 q=32.0 size=   18526kB time=00:10:07.04 bitrate= 250.0kbits/s dup=1 drop=0 speed=   6x    frame=14612 fps=144 q=32.0 size=   18598kB time=00:10:09.60 bitrate= 249.9kbits/s dup=1 drop=0 speed=5.99x    frame=14669 fps=144 q=32.0 size=   18682kB time=00:10:11.99 bitrate= 250.1kbits/s dup=1 drop=0 speed=5.99x    frame=14705 fps=143 q=32.0 size=   18737kB time=00:10:13.48 bitrate= 250.2kbits/s dup=1 drop=0 speed=5.97x    frame=14743 fps=143 q=32.0 size=   18784kB time=00:10:15.06 bitrate= 250.2kbits/s dup=1 drop=0 speed=5.96x    frame=14781 fps=142 q=32.0 size=   18823kB time=00:10:16.64 bitrate= 250.1kbits/s dup=1 drop=0 speed=5.94x    frame=14815 fps=142 q=32.0 size=   18873kB time=00:10:18.09 bitrate= 250.1kbits/s dup=1 drop=0 speed=5.93x    frame=14853 fps=142 q=29.0 size=   18919kB time=00:10:19.67 bitrate= 250.1kbits/s dup=1 drop=0 speed=5.91x    frame=14894 fps=141 q=32.0 size=   18985kB time=00:10:21.37 bitrate= 250.3kbits/s dup=1 drop=0 speed= 5.9x    frame=14929 fps=141 q=32.0 size=   19037kB time=00:10:22.82 bitrate= 250.4kbits/s dup=1 drop=0 speed=5.89x    frame=14969 fps=141 q=32.0 size=   19075kB time=00:10:24.49 bitrate= 250.2kbits/s dup=1 drop=0 speed=5.87x    frame=15009 fps=140 q=32.0 size=   19127kB time=00:10:26.15 bitrate= 250.2kbits/s dup=1 drop=0 speed=5.86x    frame=15040 fps=140 q=32.0 size=   19204kB time=00:10:27.43 bitrate= 250.7kbits/s dup=1 drop=0 speed=5.84x    frame=15142 fps=140 q=32.0 size=   19328kB time=00:10:31.74 bitrate= 250.6kbits/s dup=1 drop=0 speed=5.86x    frame=15252 fps=141 q=32.0 size=   19394kB time=00:10:36.26 bitrate= 249.7kbits/s dup=1 drop=0 speed=5.87x    frame=15325 fps=141 q=32.0 size=   19532kB time=00:10:39.33 bitrate= 250.3kbits/s dup=1 drop=0 speed=5.87x    frame=15419 fps=141 q=32.0 size=   19634kB time=00:10:43.26 bitrate= 250.0kbits/s dup=1 drop=0 speed=5.88x    frame=15514 fps=141 q=32.0 size=   19725kB time=00:10:47.23 bitrate= 249.7kbits/s dup=1 drop=0 speed=5.89x    frame=15574 fps=141 q=32.0 size=   19827kB time=00:10:49.70 bitrate= 250.0kbits/s dup=1 drop=0 speed=5.89x    frame=15613 fps=141 q=32.0 size=   19856kB time=00:10:51.37 bitrate= 249.7kbits/s dup=1 drop=0 speed=5.87x    frame=15656 fps=141 q=32.0 size=   19883kB time=00:10:53.12 bitrate= 249.4kbits/s dup=1 drop=0 speed=5.86x    frame=15730 fps=141 q=32.0 size=   19970kB time=00:10:56.23 bitrate= 249.3kbits/s dup=1 drop=0 speed=5.86x    frame=15828 fps=141 q=32.0 size=   20041kB time=00:11:00.33 bitrate= 248.6kbits/s dup=1 drop=0 speed=5.87x    frame=15925 fps=141 q=32.0 size=   20143kB time=00:11:04.38 bitrate= 248.4kbits/s dup=1 drop=0 speed=5.88x    frame=16018 fps=141 q=32.0 size=   20203kB time=00:11:08.22 bitrate= 247.7kbits/s dup=1 drop=0 speed=5.89x    frame=16100 fps=141 q=32.0 size=   20303kB time=00:11:11.68 bitrate= 247.6kbits/s dup=1 drop=0 speed= 5.9x    frame=16195 fps=142 q=32.0 size=   20362kB time=00:11:15.60 bitrate= 246.9kbits/s dup=1 drop=0 speed= 5.9x    frame=16291 fps=142 q=32.0 size=   20448kB time=00:11:19.61 bitrate= 246.5kbits/s dup=1 drop=0 speed=5.91x    frame=16378 fps=142 q=29.0 size=   20546kB time=00:11:23.24 bitrate= 246.3kbits/s dup=1 drop=0 speed=5.92x    frame=16481 fps=142 q=32.0 size=   20641kB time=00:11:27.59 bitrate= 245.9kbits/s dup=1 drop=0 speed=5.93x    frame=16581 fps=142 q=32.0 size=   20705kB time=00:11:31.73 bitrate= 245.2kbits/s dup=1 drop=0 speed=5.94x    frame=16665 fps=143 q=32.0 size=   20840kB time=00:11:35.23 bitrate= 245.6kbits/s dup=1 drop=0 speed=5.95x    frame=16753 fps=143 q=32.0 size=   20937kB time=00:11:38.90 bitrate= 245.4kbits/s dup=1 drop=0 speed=5.95x    frame=16846 fps=143 q=32.0 size=   21011kB time=00:11:42.78 bitrate= 244.9kbits/s dup=1 drop=0 speed=5.96x    frame=16930 fps=143 q=32.0 size=   21133kB time=00:11:46.28 bitrate= 245.1kbits/s dup=1 drop=0 speed=5.96x    frame=17015 fps=143 q=32.0 size=   21215kB time=00:11:49.82 bitrate= 244.8kbits/s dup=1 drop=0 speed=5.97x    frame=17088 fps=143 q=32.0 size=   21323kB time=00:11:52.85 bitrate= 245.0kbits/s dup=1 drop=0 speed=5.97x    frame=17170 fps=143 q=32.0 size=   21417kB time=00:11:56.31 bitrate= 244.9kbits/s dup=1 drop=0 speed=5.97x    frame=17245 fps=143 q=32.0 size=   21494kB time=00:11:59.46 bitrate= 244.7kbits/s dup=1 drop=0 speed=5.97x    frame=17336 fps=143 q=32.0 size=   21578kB time=00:12:03.22 bitrate= 244.4kbits/s dup=1 drop=0 speed=5.98x    frame=17439 fps=144 q=32.0 size=   21638kB time=00:12:07.48 bitrate= 243.7kbits/s dup=1 drop=0 speed=5.99x    frame=17509 fps=144 q=32.0 size=   21743kB time=00:12:10.43 bitrate= 243.9kbits/s dup=1 drop=0 speed=5.99x    frame=17593 fps=144 q=32.0 size=   21851kB time=00:12:13.93 bitrate= 243.9kbits/s dup=1 drop=0 speed=5.99x    frame=17679 fps=144 q=32.0 size=   21909kB time=00:12:17.51 bitrate= 243.4kbits/s dup=1 drop=0 speed=5.99x    frame=17718 fps=143 q=32.0 size=   21982kB time=00:12:19.13 bitrate= 243.6kbits/s dup=1 drop=0 speed=5.98x    frame=17761 fps=143 q=32.0 size=   22030kB time=00:12:20.97 bitrate= 243.6kbits/s dup=1 drop=0 speed=5.97x    frame=17795 fps=143 q=32.0 size=   22093kB time=00:12:22.37 bitrate= 243.8kbits/s dup=1 drop=0 speed=5.96x    frame=17837 fps=143 q=32.0 size=   22176kB time=00:12:24.12 bitrate= 244.1kbits/s dup=1 drop=0 speed=5.95x    frame=17893 fps=142 q=32.0 size=   22258kB time=00:12:26.43 bitrate= 244.3kbits/s dup=1 drop=0 speed=5.94x    frame=17957 fps=142 q=32.0 size=   22359kB time=00:12:29.12 bitrate= 244.5kbits/s dup=1 drop=0 speed=5.94x    frame=18049 fps=142 q=32.0 size=   22457kB time=00:12:32.96 bitrate= 244.3kbits/s dup=1 drop=0 speed=5.94x    frame=18114 fps=142 q=32.0 size=   22547kB time=00:12:35.64 bitrate= 244.4kbits/s dup=1 drop=0 speed=5.94x    frame=18202 fps=143 q=32.0 size=   22645kB time=00:12:39.31 bitrate= 244.3kbits/s dup=1 drop=0 speed=5.94x    frame=18277 fps=143 q=32.0 size=   22727kB time=00:12:42.47 bitrate= 244.2kbits/s dup=1 drop=0 speed=5.95x    frame=18339 fps=142 q=32.0 size=   22787kB time=00:12:45.03 bitrate= 244.0kbits/s dup=1 drop=0 speed=5.94x    frame=18400 fps=142 q=32.0 size=   22853kB time=00:12:47.59 bitrate= 243.9kbits/s dup=1 drop=0 speed=5.94x    frame=18474 fps=142 q=32.0 size=   22919kB time=00:12:50.66 bitrate= 243.6kbits/s dup=1 drop=0 speed=5.94x    frame=18571 fps=143 q=32.0 size=   22999kB time=00:12:54.72 bitrate= 243.2kbits/s dup=1 drop=0 speed=5.95x    frame=18656 fps=143 q=32.0 size=   23089kB time=00:12:58.26 bitrate= 243.0kbits/s dup=1 drop=0 speed=5.95x    frame=18729 fps=143 q=32.0 size=   23153kB time=00:13:01.33 bitrate= 242.8kbits/s dup=1 drop=0 speed=5.95x    frame=18812 fps=143 q=32.0 size=   23247kB time=00:13:04.79 bitrate= 242.7kbits/s dup=1 drop=0 speed=5.96x    frame=18881 fps=143 q=32.0 size=   23348kB time=00:13:07.64 bitrate= 242.8kbits/s dup=1 drop=0 speed=5.95x    frame=18954 fps=143 q=32.0 size=   23405kB time=00:13:10.72 bitrate= 242.5kbits/s dup=1 drop=0 speed=5.96x    frame=19036 fps=143 q=32.0 size=   23506kB time=00:13:14.09 bitrate= 242.5kbits/s dup=1 drop=0 speed=5.96x    frame=19128 fps=143 q=32.0 size=   23580kB time=00:13:17.93 bitrate= 242.1kbits/s dup=1 drop=0 speed=5.96x    frame=19211 fps=143 q=32.0 size=   23692kB time=00:13:21.38 bitrate= 242.2kbits/s dup=1 drop=0 speed=5.97x    frame=19315 fps=143 q=32.0 size=   23762kB time=00:13:25.73 bitrate= 241.6kbits/s dup=1 drop=0 speed=5.98x    frame=19392 fps=143 q=32.0 size=   23848kB time=00:13:28.98 bitrate= 241.5kbits/s dup=1 drop=0 speed=5.98x    frame=19492 fps=144 q=32.0 size=   23944kB time=00:13:33.16 bitrate= 241.2kbits/s dup=1 drop=0 speed=5.99x    frame=19587 fps=144 q=32.0 size=   24042kB time=00:13:37.08 bitrate= 241.0kbits/s dup=1 drop=0 speed=   6x    frame=19689 fps=144 q=32.0 size=   24130kB time=00:13:41.35 bitrate= 240.7kbits/s dup=1 drop=0 speed=   6x    frame=19760 fps=144 q=32.0 size=   24231kB time=00:13:44.34 bitrate= 240.8kbits/s dup=1 drop=0 speed=   6x    frame=19861 fps=144 q=32.0 size=   24333kB time=00:13:48.52 bitrate= 240.6kbits/s dup=1 drop=0 speed=6.01x    frame=19954 fps=144 q=32.0 size=   24401kB time=00:13:52.40 bitrate= 240.1kbits/s dup=1 drop=0 speed=6.02x    frame=20039 fps=144 q=32.0 size=   24500kB time=00:13:55.94 bitrate= 240.1kbits/s dup=1 drop=0 speed=6.02x    frame=20131 fps=144 q=32.0 size=   24602kB time=00:13:59.78 bitrate= 240.0kbits/s dup=1 drop=0 speed=6.03x    frame=20214 fps=145 q=32.0 size=   24674kB time=00:14:03.24 bitrate= 239.7kbits/s dup=1 drop=0 speed=6.03x    frame=20280 fps=145 q=32.0 size=   24752kB time=00:14:06.01 bitrate= 239.7kbits/s dup=1 drop=0 speed=6.03x    frame=20370 fps=145 q=32.0 size=   24852kB time=00:14:09.77 bitrate= 239.6kbits/s dup=1 drop=0 speed=6.03x    frame=20463 fps=145 q=32.0 size=   24968kB time=00:14:13.61 bitrate= 239.6kbits/s dup=1 drop=0 speed=6.04x    frame=20558 fps=145 q=32.0 size=   25059kB time=00:14:17.62 bitrate= 239.4kbits/s dup=1 drop=0 speed=6.05x    frame=20640 fps=145 q=32.0 size=   25150kB time=00:14:21.03 bitrate= 239.3kbits/s dup=1 drop=0 speed=6.05x    frame=20712 fps=145 q=32.0 size=   25265kB time=00:14:24.06 bitrate= 239.5kbits/s dup=1 drop=0 speed=6.05x    frame=20783 fps=145 q=32.0 size=   25340kB time=00:14:26.96 bitrate= 239.4kbits/s dup=1 drop=0 speed=6.05x    frame=20889 fps=145 q=32.0 size=   25432kB time=00:14:31.40 bitrate= 239.1kbits/s dup=1 drop=0 speed=6.06x    frame=20969 fps=145 q=32.0 size=   25521kB time=00:14:34.73 bitrate= 239.0kbits/s dup=1 drop=0 speed=6.06x    frame=21038 fps=145 q=32.0 size=   25606kB time=00:14:37.59 bitrate= 239.0kbits/s dup=1 drop=0 speed=6.06x    frame=21107 fps=145 q=32.0 size=   25684kB time=00:14:40.49 bitrate= 239.0kbits/s dup=1 drop=0 speed=6.06x    frame=21182 fps=145 q=32.0 size=   25793kB time=00:14:43.64 bitrate= 239.1kbits/s dup=1 drop=0 speed=6.06x    frame=21294 fps=145 q=32.0 size=   25867kB time=00:14:48.29 bitrate= 238.5kbits/s dup=1 drop=0 speed=6.07x    frame=21412 fps=146 q=32.0 size=   25964kB time=00:14:53.20 bitrate= 238.1kbits/s dup=1 drop=0 speed=6.08x    frame=21515 fps=146 q=32.0 size=   26067kB time=00:14:57.51 bitrate= 237.9kbits/s dup=1 drop=0 speed=6.09x    frame=21589 fps=146 q=32.0 size=   26154kB time=00:15:00.58 bitrate= 237.9kbits/s dup=1 drop=0 speed=6.09x    frame=21649 fps=146 q=32.0 size=   26244kB time=00:15:03.10 bitrate= 238.1kbits/s dup=1 drop=0 speed=6.09x    frame=21732 fps=146 q=32.0 size=   26325kB time=00:15:06.56 bitrate= 237.9kbits/s dup=1 drop=0 speed=6.09x    frame=21780 fps=146 q=32.0 size=   26400kB time=00:15:08.56 bitrate= 238.0kbits/s dup=1 drop=0 speed=6.08x    frame=21850 fps=146 q=32.0 size=   26515kB time=00:15:11.51 bitrate= 238.3kbits/s dup=1 drop=0 speed=6.08x    frame=21912 fps=146 q=32.0 size=   26577kB time=00:15:14.07 bitrate= 238.2kbits/s dup=1 drop=0 speed=6.08x    frame=21956 fps=145 q=32.0 size=   26657kB time=00:15:15.90 bitrate= 238.4kbits/s dup=1 drop=0 speed=6.07x    frame=22013 fps=145 q=32.0 size=   26745kB time=00:15:18.29 bitrate= 238.6kbits/s dup=1 drop=0 speed=6.06x    frame=22065 fps=145 q=32.0 size=   26870kB time=00:15:20.42 bitrate= 239.1kbits/s dup=1 drop=0 speed=6.06x    frame=22148 fps=145 q=32.0 size=   26933kB time=00:15:23.88 bitrate= 238.8kbits/s dup=1 drop=0 speed=6.06x    frame=22226 fps=145 q=32.0 size=   27014kB time=00:15:27.16 bitrate= 238.7kbits/s dup=1 drop=0 speed=6.06x    frame=22305 fps=145 q=32.0 size=   27102kB time=00:15:30.45 bitrate= 238.6kbits/s dup=1 drop=0 speed=6.06x    frame=22382 fps=145 q=32.0 size=   27169kB time=00:15:33.65 bitrate= 238.4kbits/s dup=1 drop=0 speed=6.06x    frame=22462 fps=145 q=32.0 size=   27248kB time=00:15:36.98 bitrate= 238.2kbits/s dup=1 drop=0 speed=6.07x    frame=22549 fps=145 q=32.0 size=   27357kB time=00:15:40.65 bitrate= 238.2kbits/s dup=1 drop=0 speed=6.07x    frame=22609 fps=145 q=32.0 size=   27415kB time=00:15:43.12 bitrate= 238.1kbits/s dup=1 drop=0 speed=6.07x    frame=22666 fps=145 q=32.0 size=   27482kB time=00:15:45.51 bitrate= 238.1kbits/s dup=1 drop=0 speed=6.06x    frame=22724 fps=145 q=32.0 size=   27563kB time=00:15:47.94 bitrate= 238.2kbits/s dup=1 drop=0 speed=6.06x    frame=22788 fps=145 q=32.0 size=   27661kB time=00:15:50.59 bitrate= 238.4kbits/s dup=1 drop=0 speed=6.05x    frame=22879 fps=145 q=32.0 size=   27723kB time=00:15:54.39 bitrate= 238.0kbits/s dup=1 drop=0 speed=6.06x    frame=22960 fps=145 q=32.0 size=   27823kB time=00:15:57.80 bitrate= 238.0kbits/s dup=1 drop=0 speed=6.06x    frame=23051 fps=145 q=32.0 size=   27895kB time=00:16:01.60 bitrate= 237.6kbits/s dup=1 drop=0 speed=6.07x    frame=23140 fps=146 q=32.0 size=   27978kB time=00:16:05.31 bitrate= 237.4kbits/s dup=1 drop=0 speed=6.07x    frame=23235 fps=146 q=32.0 size=   28068kB time=00:16:09.28 bitrate= 237.2kbits/s dup=1 drop=0 speed=6.08x    frame=23341 fps=146 q=32.0 size=   28132kB time=00:16:13.67 bitrate= 236.7kbits/s dup=1 drop=0 speed=6.08x    frame=23430 fps=146 q=32.0 size=   28217kB time=00:16:17.38 bitrate= 236.5kbits/s dup=1 drop=0 speed=6.09x    frame=23525 fps=146 q=32.0 size=   28314kB time=00:16:21.35 bitrate= 236.4kbits/s dup=1 drop=0 speed=6.09x    frame=23613 fps=146 q=32.0 size=   28395kB time=00:16:25.02 bitrate= 236.1kbits/s dup=1 drop=0 speed= 6.1x    frame=23714 fps=146 q=32.0 size=   28455kB time=00:16:29.24 bitrate= 235.6kbits/s dup=1 drop=0 speed= 6.1x    frame=23791 fps=146 q=32.0 size=   28569kB time=00:16:32.49 bitrate= 235.8kbits/s dup=1 drop=0 speed=6.11x    frame=23889 fps=147 q=32.0 size=   28637kB time=00:16:36.54 bitrate= 235.4kbits/s dup=1 drop=0 speed=6.11x    frame=23976 fps=147 q=32.0 size=   28744kB time=00:16:40.17 bitrate= 235.4kbits/s dup=1 drop=0 speed=6.11x    frame=24057 fps=147 q=32.0 size=   28834kB time=00:16:43.54 bitrate= 235.4kbits/s dup=1 drop=0 speed=6.12x    frame=24157 fps=147 q=32.0 size=   28938kB time=00:16:47.72 bitrate= 235.2kbits/s dup=1 drop=0 speed=6.12x    frame=24276 fps=147 q=32.0 size=   29012kB time=00:16:52.67 bitrate= 234.7kbits/s dup=1 drop=0 speed=6.13x    frame=24385 fps=147 q=32.0 size=   29129kB time=00:16:57.19 bitrate= 234.6kbits/s dup=1 drop=0 speed=6.14x    frame=24488 fps=147 q=32.0 size=   29220kB time=00:17:01.50 bitrate= 234.3kbits/s dup=1 drop=0 speed=6.15x    frame=24579 fps=148 q=32.0 size=   29331kB time=00:17:05.30 bitrate= 234.3kbits/s dup=1 drop=0 speed=6.15x    frame=24655 fps=148 q=32.0 size=   29427kB time=00:17:08.45 bitrate= 234.4kbits/s dup=1 drop=0 speed=6.15x    frame=24713 fps=147 q=32.0 size=   29532kB time=00:17:10.89 bitrate= 234.7kbits/s dup=1 drop=0 speed=6.15x    frame=24778 fps=147 q=32.0 size=   29642kB time=00:17:13.62 bitrate= 234.9kbits/s dup=1 drop=0 speed=6.15x    frame=24872 fps=147 q=32.0 size=   29728kB time=00:17:17.50 bitrate= 234.7kbits/s dup=1 drop=0 speed=6.15x    frame=24965 fps=148 q=32.0 size=   29820kB time=00:17:21.38 bitrate= 234.6kbits/s dup=1 drop=0 speed=6.16x    frame=25050 fps=148 q=32.0 size=   29893kB time=00:17:24.97 bitrate= 234.3kbits/s dup=1 drop=0 speed=6.16x    frame=25134 fps=148 q=32.0 size=   29976kB time=00:17:28.47 bitrate= 234.2kbits/s dup=1 drop=0 speed=6.16x    frame=25213 fps=148 q=32.0 size=   30093kB time=00:17:31.75 bitrate= 234.4kbits/s dup=1 drop=0 speed=6.16x    frame=25314 fps=148 q=32.0 size=   30214kB time=00:17:35.97 bitrate= 234.4kbits/s dup=1 drop=0 speed=6.17x    frame=25415 fps=148 q=32.0 size=   30284kB time=00:17:40.16 bitrate= 234.0kbits/s dup=1 drop=0 speed=6.17x    frame=25490 fps=148 q=32.0 size=   30367kB time=00:17:43.27 bitrate= 234.0kbits/s dup=1 drop=0 speed=6.17x    frame=25594 fps=148 q=32.0 size=   30466kB time=00:17:47.62 bitrate= 233.8kbits/s dup=1 drop=0 speed=6.18x    frame=25696 fps=148 q=32.0 size=   30528kB time=00:17:51.89 bitrate= 233.3kbits/s dup=1 drop=0 speed=6.19x    frame=25759 fps=148 q=32.0 size=   30653kB time=00:17:54.53 bitrate= 233.7kbits/s dup=1 drop=0 speed=6.18x    frame=25853 fps=148 q=32.0 size=   30738kB time=00:17:58.42 bitrate= 233.5kbits/s dup=1 drop=0 speed=6.19x    frame=25922 fps=148 q=32.0 size=   30833kB time=00:18:01.32 bitrate= 233.6kbits/s dup=1 drop=0 speed=6.19x    frame=25992 fps=148 q=32.0 size=   30940kB time=00:18:04.26 bitrate= 233.8kbits/s dup=1 drop=0 speed=6.19x    frame=26069 fps=148 q=32.0 size=   31009kB time=00:18:07.46 bitrate= 233.6kbits/s dup=1 drop=0 speed=6.19x    frame=26144 fps=148 q=32.0 size=   31083kB time=00:18:10.58 bitrate= 233.5kbits/s dup=1 drop=0 speed=6.19x    frame=26241 fps=148 q=32.0 size=   31180kB time=00:18:14.63 bitrate= 233.3kbits/s dup=1 drop=0 speed=6.19x    frame=26328 fps=148 q=32.0 size=   31244kB time=00:18:18.26 bitrate= 233.1kbits/s dup=1 drop=0 speed=6.19x    frame=26422 fps=149 q=32.0 size=   31337kB time=00:18:22.18 bitrate= 232.9kbits/s dup=1 drop=0 speed= 6.2x    frame=26515 fps=149 q=32.0 size=   31401kB time=00:18:26.07 bitrate= 232.6kbits/s dup=1 drop=0 speed= 6.2x    frame=26597 fps=149 q=32.0 size=   31497kB time=00:18:29.48 bitrate= 232.6kbits/s dup=1 drop=0 speed= 6.2x    frame=26688 fps=149 q=32.0 size=   31619kB time=00:18:33.28 bitrate= 232.7kbits/s dup=1 drop=0 speed=6.21x    frame=26764 fps=149 q=32.0 size=   31695kB time=00:18:36.43 bitrate= 232.6kbits/s dup=1 drop=0 speed=6.21x    frame=26830 fps=149 q=32.0 size=   31785kB time=00:18:39.21 bitrate= 232.6kbits/s dup=1 drop=0 speed= 6.2x    frame=26891 fps=149 q=32.0 size=   31851kB time=00:18:41.72 bitrate= 232.6kbits/s dup=1 drop=0 speed= 6.2x    frame=26956 fps=149 q=32.0 size=   31910kB time=00:18:44.45 bitrate= 232.5kbits/s dup=1 drop=0 speed= 6.2x    frame=27016 fps=149 q=32.0 size=   32001kB time=00:18:46.93 bitrate= 232.6kbits/s dup=1 drop=0 speed= 6.2x    frame=27077 fps=148 q=32.0 size=   32064kB time=00:18:49.49 bitrate= 232.6kbits/s dup=1 drop=0 speed=6.19x    frame=27131 fps=148 q=32.0 size=   32134kB time=00:18:51.75 bitrate= 232.6kbits/s dup=1 drop=0 speed=6.19x    frame=27194 fps=148 q=32.0 size=   32178kB time=00:18:54.40 bitrate= 232.4kbits/s dup=1 drop=0 speed=6.18x    frame=27236 fps=148 q=32.0 size=   32256kB time=00:18:56.15 bitrate= 232.6kbits/s dup=1 drop=0 speed=6.18x    frame=27281 fps=148 q=32.0 size=   32314kB time=00:18:58.02 bitrate= 232.6kbits/s dup=1 drop=0 speed=6.17x    frame=27326 fps=148 q=32.0 size=   32370kB time=00:18:59.86 bitrate= 232.6kbits/s dup=1 drop=0 speed=6.16x    frame=27385 fps=148 q=32.0 size=   32429kB time=00:19:02.33 bitrate= 232.6kbits/s dup=1 drop=0 speed=6.16x    frame=27439 fps=147 q=32.0 size=   32521kB time=00:19:04.59 bitrate= 232.8kbits/s dup=1 drop=0 speed=6.15x    frame=27502 fps=147 q=32.0 size=   32608kB time=00:19:07.24 bitrate= 232.8kbits/s dup=1 drop=0 speed=6.15x    frame=27549 fps=147 q=32.0 size=   32704kB time=00:19:09.20 bitrate= 233.1kbits/s dup=1 drop=0 speed=6.14x    frame=27622 fps=147 q=32.0 size=   32802kB time=00:19:12.19 bitrate= 233.2kbits/s dup=1 drop=0 speed=6.14x    frame=27703 fps=147 q=32.0 size=   32861kB time=00:19:15.60 bitrate= 233.0kbits/s dup=1 drop=0 speed=6.15x    frame=27800 fps=147 q=32.0 size=   32946kB time=00:19:19.65 bitrate= 232.7kbits/s dup=1 drop=0 speed=6.15x    frame=27871 fps=147 q=32.0 size=   33010kB time=00:19:22.60 bitrate= 232.6kbits/s dup=1 drop=0 speed=6.15x    frame=27922 fps=147 q=32.0 size=   33105kB time=00:19:24.73 bitrate= 232.8kbits/s dup=1 drop=0 speed=6.14x    frame=27992 fps=147 q=32.0 size=   33198kB time=00:19:27.63 bitrate= 232.9kbits/s dup=1 drop=0 speed=6.14x    frame=28078 fps=147 q=32.0 size=   33283kB time=00:19:31.26 bitrate= 232.8kbits/s dup=1 drop=0 speed=6.15x    frame=28157 fps=147 q=32.0 size=   33376kB time=00:19:34.55 bitrate= 232.8kbits/s dup=1 drop=0 speed=6.15x    frame=28244 fps=147 q=32.0 size=   33474kB time=00:19:38.17 bitrate= 232.7kbits/s dup=1 drop=0 speed=6.15x    frame=28343 fps=148 q=32.0 size=   33545kB time=00:19:42.27 bitrate= 232.4kbits/s dup=1 drop=0 speed=6.15x    frame=28432 fps=148 q=32.0 size=   33617kB time=00:19:46.02 bitrate= 232.2kbits/s dup=1 drop=0 speed=6.16x    frame=28541 fps=148 q=32.0 size=   33705kB time=00:19:50.55 bitrate= 231.9kbits/s dup=1 drop=0 speed=6.16x    frame=28618 fps=148 q=32.0 size=   33768kB time=00:19:53.75 bitrate= 231.7kbits/s dup=1 drop=0 speed=6.17x    frame=28690 fps=148 q=32.0 size=   33853kB time=00:19:56.77 bitrate= 231.7kbits/s dup=1 drop=0 speed=6.16x    frame=28770 fps=148 q=32.0 size=   33914kB time=00:20:00.10 bitrate= 231.5kbits/s dup=1 drop=0 speed=6.17x    frame=28840 fps=148 q=32.0 size=   33958kB time=00:20:03.00 bitrate= 231.2kbits/s dup=1 drop=0 speed=6.16x    frame=28897 fps=148 q=32.0 size=   34015kB time=00:20:05.39 bitrate= 231.2kbits/s dup=1 drop=0 speed=6.16x    frame=28943 fps=148 q=32.0 size=   34076kB time=00:20:07.31 bitrate= 231.2kbits/s dup=1 drop=0 speed=6.15x    frame=29012 fps=148 q=29.0 size=   34120kB time=00:20:10.21 bitrate= 231.0kbits/s dup=1 drop=0 speed=6.15x    frame=29086 fps=148 q=32.0 size=   34201kB time=00:20:13.29 bitrate= 230.9kbits/s dup=1 drop=0 speed=6.15x    frame=29162 fps=148 q=32.0 size=   34264kB time=00:20:16.44 bitrate= 230.7kbits/s dup=1 drop=0 speed=6.15x    frame=29219 fps=147 q=32.0 size=   34311kB time=00:20:18.83 bitrate= 230.6kbits/s dup=1 drop=0 speed=6.15x    frame=29261 fps=147 q=32.0 size=   34355kB time=00:20:20.58 bitrate= 230.6kbits/s dup=1 drop=0 speed=6.14x    frame=29319 fps=147 q=32.0 size=   34447kB time=00:20:23.01 bitrate= 230.7kbits/s dup=1 drop=0 speed=6.14x    frame=29415 fps=147 q=32.0 size=   34552kB time=00:20:26.98 bitrate= 230.7kbits/s dup=1 drop=0 speed=6.14x    frame=29487 fps=147 q=32.0 size=   34593kB time=00:20:30.01 bitrate= 230.4kbits/s dup=1 drop=0 speed=6.14x    frame=29566 fps=147 q=32.0 size=   34680kB time=00:20:33.30 bitrate= 230.4kbits/s dup=1 drop=0 speed=6.14x    frame=29641 fps=147 q=32.0 size=   34738kB time=00:20:36.41 bitrate= 230.2kbits/s dup=1 drop=0 speed=6.14x    frame=29695 fps=147 q=32.0 size=   34834kB time=00:20:38.72 bitrate= 230.4kbits/s dup=1 drop=0 speed=6.14x    frame=29782 fps=147 q=32.0 size=   34920kB time=00:20:42.30 bitrate= 230.3kbits/s dup=1 drop=0 speed=6.14x    frame=29849 fps=147 q=32.0 size=   34965kB time=00:20:45.12 bitrate= 230.0kbits/s dup=1 drop=0 speed=6.14x    frame=29926 fps=147 q=32.0 size=   35053kB time=00:20:48.32 bitrate= 230.0kbits/s dup=1 drop=0 speed=6.14x    frame=30011 fps=147 q=32.0 size=   35117kB time=00:20:51.86 bitrate= 229.8kbits/s dup=1 drop=0 speed=6.14x    frame=30065 fps=147 q=32.0 size=   35198kB time=00:20:54.12 bitrate= 229.9kbits/s dup=1 drop=0 speed=6.14x    frame=30113 fps=147 q=32.0 size=   35289kB time=00:20:56.12 bitrate= 230.1kbits/s dup=1 drop=0 speed=6.13x    frame=30189 fps=147 q=32.0 size=   35401kB time=00:20:59.28 bitrate= 230.3kbits/s dup=1 drop=0 speed=6.13x    frame=30272 fps=147 q=32.0 size=   35497kB time=00:21:02.74 bitrate= 230.3kbits/s dup=1 drop=0 speed=6.14x    frame=30365 fps=147 q=32.0 size=   35559kB time=00:21:06.66 bitrate= 230.0kbits/s dup=1 drop=0 speed=6.14x    frame=30464 fps=147 q=32.0 size=   35646kB time=00:21:10.76 bitrate= 229.8kbits/s dup=1 drop=0 speed=6.15x    frame=30564 fps=147 q=32.0 size=   35727kB time=00:21:14.90 bitrate= 229.6kbits/s dup=1 drop=0 speed=6.15x    frame=30676 fps=148 q=32.0 size=   35795kB time=00:21:19.59 bitrate= 229.2kbits/s dup=1 drop=0 speed=6.16x    frame=30770 fps=148 q=32.0 size=   35895kB time=00:21:23.52 bitrate= 229.1kbits/s dup=1 drop=0 speed=6.16x    frame=30849 fps=148 q=32.0 size=   35986kB time=00:21:26.80 bitrate= 229.1kbits/s dup=1 drop=0 speed=6.16x    frame=30929 fps=148 q=32.0 size=   36059kB time=00:21:30.17 bitrate= 229.0kbits/s dup=1 drop=0 speed=6.16x    frame=31001 fps=148 q=32.0 size=   36125kB time=00:21:33.16 bitrate= 228.8kbits/s dup=1 drop=0 speed=6.16x    frame=31071 fps=148 q=32.0 size=   36209kB time=00:21:36.06 bitrate= 228.9kbits/s dup=1 drop=0 speed=6.16x    frame=31137 fps=148 q=32.0 size=   36263kB time=00:21:38.83 bitrate= 228.7kbits/s dup=1 drop=0 speed=6.16x    frame=31210 fps=148 q=32.0 size=   36346kB time=00:21:41.86 bitrate= 228.7kbits/s dup=1 drop=0 speed=6.16x    frame=31291 fps=148 q=32.0 size=   36395kB time=00:21:45.28 bitrate= 228.4kbits/s dup=1 drop=0 speed=6.16x    frame=31335 fps=148 q=32.0 size=   36470kB time=00:21:47.07 bitrate= 228.6kbits/s dup=1 drop=0 speed=6.15x    frame=31390 fps=147 q=32.0 size=   36541kB time=00:21:49.37 bitrate= 228.6kbits/s dup=1 drop=0 speed=6.15x    frame=31453 fps=147 q=32.0 size=   36666kB time=00:21:52.02 bitrate= 228.9kbits/s dup=1 drop=0 speed=6.15x    frame=31508 fps=147 q=32.0 size=   36763kB time=00:21:54.32 bitrate= 229.1kbits/s dup=1 drop=0 speed=6.14x    frame=31553 fps=147 q=32.0 size=   36901kB time=00:21:56.20 bitrate= 229.7kbits/s dup=1 drop=0 speed=6.14x    frame=31592 fps=147 q=32.0 size=   37016kB time=00:21:57.82 bitrate= 230.1kbits/s dup=1 drop=0 speed=6.13x    frame=31630 fps=147 q=32.0 size=   37121kB time=00:21:59.40 bitrate= 230.5kbits/s dup=1 drop=0 speed=6.12x    frame=31672 fps=147 q=32.0 size=   37235kB time=00:22:01.15 bitrate= 230.9kbits/s dup=1 drop=0 speed=6.12x    frame=31709 fps=146 q=32.0 size=   37327kB time=00:22:02.68 bitrate= 231.2kbits/s dup=1 drop=0 speed=6.11x    frame=31749 fps=146 q=32.0 size=   37429kB time=00:22:04.35 bitrate= 231.5kbits/s dup=1 drop=0 speed= 6.1x    frame=31792 fps=146 q=32.0 size=   37547kB time=00:22:06.14 bitrate= 231.9kbits/s dup=1 drop=0 speed= 6.1x    frame=31825 fps=146 q=32.0 size=   37623kB time=00:22:07.55 bitrate= 232.2kbits/s dup=1 drop=0 speed=6.09x    frame=31851 fps=146 q=32.0 size=   37737kB time=00:22:08.61 bitrate= 232.7kbits/s dup=1 drop=0 speed=6.08x    frame=31873 fps=146 q=32.0 size=   37815kB time=00:22:09.51 bitrate= 233.0kbits/s dup=1 drop=0 speed=6.07x    frame=31906 fps=145 q=32.0 size=   37945kB time=00:22:10.88 bitrate= 233.6kbits/s dup=1 drop=0 speed=6.06x    frame=31975 fps=145 q=32.0 size=   38052kB time=00:22:13.78 bitrate= 233.7kbits/s dup=1 drop=0 speed=6.06x    frame=32030 fps=145 q=32.0 size=   38183kB time=00:22:16.08 bitrate= 234.1kbits/s dup=1 drop=0 speed=6.06x    frame=32099 fps=145 q=32.0 size=   38342kB time=00:22:18.94 bitrate= 234.6kbits/s dup=1 drop=0 speed=6.06x    frame=32153 fps=145 q=32.0 size=   38439kB time=00:22:21.20 bitrate= 234.8kbits/s dup=1 drop=0 speed=6.05x    frame=32205 fps=145 q=32.0 size=   38589kB time=00:22:23.38 bitrate= 235.3kbits/s dup=1 drop=0 speed=6.05x    frame=32264 fps=145 q=32.0 size=   38728kB time=00:22:25.85 bitrate= 235.7kbits/s dup=1 drop=0 speed=6.05x    frame=32312 fps=145 q=32.0 size=   38841kB time=00:22:27.81 bitrate= 236.1kbits/s dup=1 drop=0 speed=6.04x    frame=32373 fps=145 q=32.0 size=   38944kB time=00:22:30.37 bitrate= 236.2kbits/s dup=1 drop=0 speed=6.04x    frame=32414 fps=145 q=32.0 size=   39064kB time=00:22:32.08 bitrate= 236.7kbits/s dup=1 drop=0 speed=6.03x    frame=32483 fps=145 q=32.0 size=   39171kB time=00:22:34.98 bitrate= 236.8kbits/s dup=1 drop=0 speed=6.03x    frame=32541 fps=144 q=32.0 size=   39284kB time=00:22:37.37 bitrate= 237.1kbits/s dup=1 drop=0 speed=6.03x    frame=32613 fps=144 q=32.0 size=   39371kB time=00:22:40.40 bitrate= 237.1kbits/s dup=1 drop=0 speed=6.03x    frame=32661 fps=144 q=32.0 size=   39488kB time=00:22:42.36 bitrate= 237.4kbits/s dup=1 drop=0 speed=6.02x    frame=32701 fps=144 q=32.0 size=   39599kB time=00:22:44.07 bitrate= 237.8kbits/s dup=1 drop=0 speed=6.02x    frame=32751 fps=144 q=32.0 size=   39712kB time=00:22:46.16 bitrate= 238.1kbits/s dup=1 drop=0 speed=6.01x    frame=32798 fps=144 q=32.0 size=   39809kB time=00:22:48.12 bitrate= 238.4kbits/s dup=1 drop=0 speed=6.01x    frame=32834 fps=144 q=32.0 size=   39909kB time=00:22:49.62 bitrate= 238.7kbits/s dup=1 drop=0 speed=   6x    frame=32864 fps=144 q=32.0 size=   40014kB time=00:22:50.85 bitrate= 239.1kbits/s dup=1 drop=0 speed=5.99x    frame=32895 fps=143 q=32.0 size=   40133kB time=00:22:52.13 bitrate= 239.6kbits/s dup=1 drop=0 speed=5.98x    frame=32936 fps=143 q=32.0 size=   40233kB time=00:22:53.84 bitrate= 239.9kbits/s dup=1 drop=0 speed=5.98x    frame=32979 fps=143 q=32.0 size=   40320kB time=00:22:55.63 bitrate= 240.1kbits/s dup=1 drop=0 speed=5.97x    frame=33010 fps=143 q=32.0 size=   40446kB time=00:22:56.96 bitrate= 240.6kbits/s dup=1 drop=0 speed=5.96x    frame=33051 fps=143 q=32.0 size=   40599kB time=00:22:58.66 bitrate= 241.2kbits/s dup=1 drop=0 speed=5.96x    frame=33094 fps=143 q=32.0 size=   40685kB time=00:23:00.45 bitrate= 241.4kbits/s dup=1 drop=0 speed=5.95x    frame=33146 fps=143 q=32.0 size=   40787kB time=00:23:02.63 bitrate= 241.7kbits/s dup=1 drop=0 speed=5.95x    frame=33205 fps=143 q=32.0 size=   40887kB time=00:23:05.06 bitrate= 241.8kbits/s dup=1 drop=0 speed=5.95x    frame=33277 fps=143 q=32.0 size=   40981kB time=00:23:08.09 bitrate= 241.9kbits/s dup=1 drop=0 speed=5.95x    frame=33327 fps=142 q=32.0 size=   41071kB time=00:23:10.18 bitrate= 242.0kbits/s dup=1 drop=0 speed=5.94x    frame=33378 fps=142 q=32.0 size=   41153kB time=00:23:12.32 bitrate= 242.1kbits/s dup=1 drop=0 speed=5.94x    frame=33460 fps=142 q=32.0 size=   41236kB time=00:23:15.73 bitrate= 242.0kbits/s dup=1 drop=0 speed=5.94x    frame=33563 fps=143 q=32.0 size=   41328kB time=00:23:20.00 bitrate= 241.8kbits/s dup=1 drop=0 speed=5.95x    frame=33619 fps=142 q=32.0 size=   41419kB time=00:23:22.34 bitrate= 242.0kbits/s dup=1 drop=0 speed=5.94x    frame=33678 fps=142 q=32.0 size=   41507kB time=00:23:24.82 bitrate= 242.0kbits/s dup=1 drop=0 speed=5.94x    frame=33742 fps=142 q=32.0 size=   41594kB time=00:23:27.46 bitrate= 242.1kbits/s dup=1 drop=0 speed=5.94x    frame=33835 fps=142 q=32.0 size=   41698kB time=00:23:31.35 bitrate= 242.0kbits/s dup=1 drop=0 speed=5.94x    frame=33924 fps=143 q=32.0 size=   41783kB time=00:23:35.06 bitrate= 241.9kbits/s dup=1 drop=0 speed=5.94x    frame=34015 fps=143 q=32.0 size=   41864kB time=00:23:38.85 bitrate= 241.7kbits/s dup=1 drop=0 speed=5.95x    frame=34093 fps=143 q=32.0 size=   41986kB time=00:23:42.10 bitrate= 241.9kbits/s dup=1 drop=0 speed=5.95x    frame=34152 fps=143 q=32.0 size=   42090kB time=00:23:44.57 bitrate= 242.0kbits/s dup=1 drop=0 speed=5.95x    frame=34195 fps=142 q=32.0 size=   42191kB time=00:23:46.36 bitrate= 242.3kbits/s dup=1 drop=0 speed=5.94x    frame=34260 fps=142 q=32.0 size=   42249kB time=00:23:49.09 bitrate= 242.2kbits/s dup=1 drop=0 speed=5.94x    frame=34310 fps=142 q=32.0 size=   42345kB time=00:23:51.14 bitrate= 242.4kbits/s dup=1 drop=0 speed=5.94x    frame=34338 fps=142 q=32.0 size=   42457kB time=00:23:52.34 bitrate= 242.8kbits/s dup=1 drop=0 speed=5.93x    frame=34390 fps=142 q=32.0 size=   42579kB time=00:23:54.51 bitrate= 243.2kbits/s dup=1 drop=0 speed=5.93x    frame=34447 fps=142 q=32.0 size=   42674kB time=00:23:56.86 bitrate= 243.3kbits/s dup=1 drop=0 speed=5.92x    frame=34536 fps=142 q=32.0 size=   42759kB time=00:24:00.57 bitrate= 243.2kbits/s dup=1 drop=0 speed=5.92x    frame=34637 fps=142 q=32.0 size=   42890kB time=00:24:04.84 bitrate= 243.2kbits/s dup=1 drop=0 speed=5.93x    frame=34733 fps=142 q=32.0 size=   43004kB time=00:24:08.81 bitrate= 243.2kbits/s dup=1 drop=0 speed=5.93x    frame=34815 fps=142 q=32.0 size=   43111kB time=00:24:12.22 bitrate= 243.2kbits/s dup=1 drop=0 speed=5.94x    frame=34920 fps=142 q=32.0 size=   43219kB time=00:24:16.61 bitrate= 243.1kbits/s dup=1 drop=0 speed=5.94x    frame=35019 fps=143 q=32.0 size=   43327kB time=00:24:20.71 bitrate= 243.0kbits/s dup=1 drop=0 speed=5.95x    frame=35110 fps=143 q=32.0 size=   43404kB time=00:24:24.51 bitrate= 242.8kbits/s dup=1 drop=0 speed=5.95x    frame=35195 fps=143 q=32.0 size=   43513kB time=00:24:27.71 bitrate= 242.9kbits/s dup=1 drop=0 speed=5.95x    [mp4 @ 0x2ffe620] Starting second pass: moving the moov atom to the beginning of the file
frame=35195 fps=142 q=-1.0 Lsize=   44407kB time=00:24:27.92 bitrate= 247.8kbits/s dup=1 drop=0 speed=5.94x    
video:34118kB audio:9455kB subtitle:0kB other streams:0kB global headers:0kB muxing overhead: 1.914827%
[libx264 @ 0x306f060] frame I:291   Avg QP:21.64  size: 16722
[libx264 @ 0x306f060] frame P:11366 Avg QP:24.20  size:  2109
[libx264 @ 0x306f060] frame B:23538 Avg QP:28.44  size:   259
[libx264 @ 0x306f060] consecutive B-frames:  4.0% 12.5% 23.5% 59.9%
[libx264 @ 0x306f060] mb I  I16..4: 23.8% 61.8% 14.4%
[libx264 @ 0x306f060] mb P  I16..4:  4.2%  4.5%  0.6%  P16..4: 31.7%  3.6%  3.3%  0.1%  0.0%    skip:52.1%
[libx264 @ 0x306f060] mb B  I16..4:  0.2%  0.2%  0.0%  B16..8: 11.2%  0.6%  0.1%  direct: 0.4%  skip:87.4%  L0:42.4% L1:56.3% BI: 1.3%
[libx264 @ 0x306f060] 8x8 transform intra:51.5% inter:70.4%
[libx264 @ 0x306f060] coded y,uvDC,uvAC intra: 30.1% 55.7% 12.8% inter: 1.3% 4.2% 0.1%
[libx264 @ 0x306f060] i16 v,h,dc,p: 40% 34% 17%  9%
[libx264 @ 0x306f060] i8 v,h,dc,ddl,ddr,vr,hd,vl,hu: 22% 20% 37%  3%  3%  3%  4%  4%  4%
[libx264 @ 0x306f060] i4 v,h,dc,ddl,ddr,vr,hd,vl,hu: 26% 23% 16%  5%  7%  6%  7%  5%  5%
[libx264 @ 0x306f060] i8c dc,h,v,p: 42% 28% 22%  7%
[libx264 @ 0x306f060] Weighted P-Frames: Y:1.3% UV:0.8%
[libx264 @ 0x306f060] ref P L0: 58.6% 10.3% 11.4%  4.9%  5.0%  3.5%  3.3%  2.3%  0.7%  0.0%
[libx264 @ 0x306f060] ref B L0: 81.2%  7.2%  4.8%  2.8%  1.7%  1.3%  1.0%
[libx264 @ 0x306f060] ref B L1: 94.2%  5.8%
[libx264 @ 0x306f060] kb/s:190.40
